<svg width="308" height="36" viewBox="0 0 308 36" fill="none" xmlns="http://www.w3.org/2000/svg">
<path d="M25.7472 15.7202C25.2831 18.4877 24.3634 20.8078 22.9879 22.6804C21.6125 24.553 19.9428 25.9658 17.979 26.9187C16.0153 27.8716 13.9148 28.348 11.6776 28.348C9.29119 28.348 7.2197 27.8301 5.46307 26.7944C3.70644 25.7586 2.42625 24.2423 1.62251 22.2454C0.818774 20.2485 0.657197 17.8082 1.13778 14.9247C1.58523 12.1572 2.49669 9.82883 3.87216 7.93963C5.24763 6.05043 6.92554 4.62109 8.90589 3.65163C10.8862 2.68217 13.0033 2.19744 15.2571 2.19744C17.6269 2.19744 19.686 2.71946 21.4343 3.76349C23.1909 4.80753 24.467 6.33629 25.2624 8.34979C26.0662 10.3633 26.2277 12.8201 25.7472 15.7202ZM18.7869 14.9247C19.0189 13.4664 19.0355 12.2401 18.8366 11.2457C18.6378 10.2431 18.2193 9.48911 17.5813 8.98366C16.9433 8.46993 16.0857 8.21307 15.0085 8.21307C13.7822 8.21307 12.6967 8.51136 11.7521 9.10795C10.8075 9.70454 10.0245 10.5621 9.40305 11.6808C8.78161 12.7994 8.34659 14.1458 8.09801 15.7202C7.83286 17.1951 7.808 18.4214 8.02344 19.3991C8.24716 20.3769 8.68632 21.1102 9.34091 21.5991C10.0038 22.0879 10.8655 22.3324 11.9261 22.3324C13.1359 22.3324 14.2048 22.0424 15.1328 21.4624C16.0691 20.8823 16.8439 20.0413 17.457 18.9393C18.0785 17.8372 18.5218 16.4991 18.7869 14.9247ZM35.7059 17.2614L33.9161 28H27.0553L30.2371 8.90909H36.7499L36.1533 12.5384H36.3522C36.9571 11.3203 37.8395 10.3716 38.9996 9.69212C40.1679 9.00438 41.4564 8.66051 42.865 8.66051C44.2156 8.66051 45.3383 8.96709 46.2332 9.58025C47.1281 10.1934 47.762 11.0386 48.1349 12.1158C48.5077 13.1929 48.574 14.4276 48.3337 15.8196L46.2954 28H39.4346L41.2243 17.2614C41.3818 16.3168 41.2658 15.5752 40.8763 15.0366C40.4952 14.498 39.8654 14.2287 38.9871 14.2287C38.432 14.2287 37.9224 14.353 37.4584 14.6016C37.0026 14.8419 36.6215 15.1899 36.3149 15.6456C36.0166 16.093 35.8136 16.6316 35.7059 17.2614ZM58.7306 28.348C56.6922 28.348 55.0019 27.9586 53.6595 27.1797C52.3172 26.3925 51.3726 25.2656 50.8257 23.799C50.2789 22.3241 50.1794 20.5592 50.5274 18.5043C50.8589 16.5322 51.5425 14.8087 52.5782 13.3338C53.6222 11.8589 54.9356 10.7113 56.5182 9.89098C58.1091 9.07067 59.8906 8.66051 61.8627 8.66051C63.3044 8.66051 64.568 8.88423 65.6535 9.33168C66.7472 9.77912 67.638 10.4296 68.3257 11.283C69.0135 12.1365 69.4775 13.1681 69.7178 14.3778C69.9664 15.5793 69.9664 16.9382 69.7178 18.4545L69.4692 20.0455H52.4166L53.0132 16.267H63.7519C63.8347 15.7202 63.7809 15.2396 63.5903 14.8253C63.408 14.4027 63.1138 14.0754 62.7078 13.8434C62.3101 13.6031 61.8295 13.483 61.2661 13.483C60.7026 13.483 60.1723 13.6031 59.6752 13.8434C59.1863 14.0837 58.7678 14.4193 58.4198 14.8501C58.0801 15.281 57.8522 15.7865 57.7362 16.3665L56.9905 20.3438C56.8911 20.9569 56.9284 21.5038 57.1024 21.9844C57.2764 22.465 57.5788 22.842 58.0097 23.1154C58.4405 23.3888 58.9957 23.5256 59.6752 23.5256C60.1392 23.5256 60.5783 23.4634 60.9926 23.3391C61.4152 23.2066 61.7881 23.016 62.1112 22.7674C62.4427 22.5105 62.7078 22.1998 62.9067 21.8352H69.1709C68.7235 23.161 68.015 24.3127 67.0455 25.2905C66.0844 26.2599 64.8995 27.014 63.4909 27.5526C62.0905 28.0829 60.5038 28.348 58.7306 28.348ZM87.4322 10.5C87.5067 9.67969 87.3079 9.03752 86.8356 8.57351C86.3633 8.10121 85.5678 7.86506 84.4492 7.86506C83.7366 7.86506 83.14 7.94792 82.6594 8.11364C82.1871 8.27936 81.8184 8.50722 81.5533 8.79723C81.2964 9.08724 81.1348 9.42282 81.0685 9.80398C80.994 10.1023 80.9981 10.3757 81.081 10.6243C81.1721 10.8646 81.342 11.0842 81.5906 11.283C81.8474 11.4819 82.183 11.66 82.5973 11.8175C83.0199 11.9749 83.5212 12.1158 84.1012 12.2401L86.0898 12.6875C87.4487 12.9858 88.5881 13.3794 89.5078 13.8683C90.4358 14.3488 91.165 14.9206 91.6953 15.5835C92.2256 16.2463 92.5736 16.9879 92.7393 17.8082C92.9134 18.6286 92.9175 19.5234 92.7518 20.4929C92.4701 22.1667 91.8196 23.5836 90.8004 24.7436C89.7813 25.9036 88.4514 26.7861 86.8107 27.391C85.1701 27.9959 83.2726 28.2983 81.1183 28.2983C78.9142 28.2983 77.0415 27.971 75.5004 27.3164C73.9674 26.6535 72.8571 25.6426 72.1694 24.2837C71.4899 22.9165 71.3242 21.1723 71.6722 19.0511H78.2347C78.1353 19.83 78.2182 20.4846 78.4833 21.0149C78.7485 21.5452 79.1752 21.9471 79.7635 22.2205C80.3518 22.494 81.0851 22.6307 81.9634 22.6307C82.7092 22.6307 83.3472 22.5395 83.8775 22.3572C84.4078 22.175 84.8262 21.9222 85.1328 21.5991C85.4394 21.2759 85.6258 20.9072 85.6921 20.4929C85.7584 20.1117 85.6921 19.772 85.4933 19.4737C85.2944 19.1754 84.9339 18.9061 84.4119 18.6658C83.8899 18.4255 83.1732 18.206 82.2617 18.0071L79.8256 17.4602C77.663 16.9631 76.0307 16.1428 74.9286 14.9993C73.8266 13.8558 73.4371 12.2898 73.7603 10.3011C74.0254 8.67708 74.6925 7.26018 75.7614 6.05043C76.8385 4.83239 78.2057 3.88778 79.8629 3.21662C81.5284 2.53717 83.372 2.19744 85.3938 2.19744C87.4487 2.19744 89.1681 2.54131 90.5518 3.22905C91.9439 3.91678 92.9424 4.8821 93.5472 6.125C94.1604 7.3679 94.3261 8.82623 94.0444 10.5H87.4322ZM108.804 8.90909L107.959 13.8807H95.3805L96.2257 8.90909H108.804ZM99.4075 4.33523H106.268L103.36 21.8601C103.318 22.1252 103.327 22.349 103.385 22.5312C103.443 22.7053 103.559 22.8378 103.733 22.929C103.915 23.0118 104.155 23.0533 104.454 23.0533C104.653 23.0533 104.897 23.0284 105.187 22.9787C105.477 22.9207 105.697 22.8793 105.846 22.8544L106.045 27.6768C105.697 27.7763 105.228 27.8881 104.64 28.0124C104.06 28.145 103.385 28.232 102.614 28.2734C101.007 28.348 99.6975 28.1781 98.6866 27.7638C97.684 27.3496 96.988 26.7032 96.5985 25.8249C96.2174 24.9383 96.1511 23.8321 96.3997 22.5064L99.4075 4.33523ZM117.364 28.348C115.293 28.348 113.586 27.9379 112.244 27.1175C110.909 26.2889 109.973 25.1372 109.435 23.6623C108.896 22.1791 108.788 20.4598 109.111 18.5043C109.435 16.5488 110.11 14.8336 111.137 13.3587C112.165 11.8755 113.486 10.7237 115.102 9.90341C116.718 9.07481 118.566 8.66051 120.646 8.66051C122.709 8.66051 124.407 9.07481 125.741 9.90341C127.084 10.7237 128.024 11.8755 128.563 13.3587C129.11 14.8336 129.222 16.5488 128.898 18.5043C128.575 20.4598 127.896 22.1791 126.86 23.6623C125.824 25.1372 124.498 26.2889 122.883 27.1175C121.275 27.9379 119.436 28.348 117.364 28.348ZM118.209 23.277C118.806 23.277 119.349 23.0823 119.838 22.6928C120.335 22.3034 120.757 21.7482 121.105 21.0273C121.462 20.3065 121.723 19.4489 121.888 18.4545C122.054 17.4519 122.079 16.5943 121.963 15.8817C121.847 15.1609 121.607 14.6057 121.242 14.2163C120.878 13.8268 120.397 13.6321 119.8 13.6321C119.204 13.6321 118.657 13.8268 118.16 14.2163C117.663 14.6057 117.24 15.1609 116.892 15.8817C116.544 16.5943 116.287 17.4519 116.121 18.4545C115.956 19.4489 115.927 20.3065 116.034 21.0273C116.15 21.7482 116.391 22.3034 116.755 22.6928C117.128 23.0823 117.613 23.277 118.209 23.277ZM128.948 35.1591L133.348 8.90909H140.159L139.612 12.2401H139.761C140.109 11.5937 140.565 11.0013 141.128 10.4627C141.7 9.91584 142.371 9.48082 143.142 9.15767C143.921 8.82623 144.783 8.66051 145.727 8.66051C146.987 8.66051 148.126 8.99609 149.145 9.66726C150.164 10.3384 150.914 11.3949 151.395 12.8366C151.875 14.2784 151.925 16.151 151.544 18.4545C151.179 20.6586 150.529 22.4857 149.593 23.9357C148.665 25.3858 147.571 26.4671 146.311 27.1797C145.06 27.8923 143.755 28.2486 142.396 28.2486C141.501 28.2486 140.727 28.1036 140.072 27.8136C139.417 27.5153 138.891 27.1134 138.494 26.608C138.096 26.0942 137.822 25.5142 137.673 24.8679H137.524L135.834 35.1591H128.948ZM138.469 18.4545C138.32 19.3826 138.307 20.1863 138.431 20.8658C138.564 21.5369 138.825 22.0589 139.214 22.4318C139.612 22.7964 140.126 22.9787 140.756 22.9787C141.385 22.9787 141.949 22.8005 142.446 22.4442C142.943 22.0797 143.366 21.5618 143.714 20.8906C144.062 20.2112 144.319 19.3991 144.484 18.4545C144.633 17.5099 144.646 16.7021 144.522 16.0309C144.397 15.3514 144.145 14.8336 143.763 14.4773C143.382 14.1127 142.877 13.9304 142.247 13.9304C141.617 13.9304 141.041 14.1127 140.519 14.4773C140.006 14.8336 139.571 15.3514 139.214 16.0309C138.866 16.7021 138.618 17.5099 138.469 18.4545ZM159.694 28L163.92 2.54545H174.907C176.797 2.54545 178.392 2.88932 179.692 3.57706C180.993 4.2648 181.93 5.25497 182.501 6.54759C183.073 7.8402 183.21 9.38968 182.912 11.196C182.613 13.0189 181.955 14.556 180.935 15.8072C179.924 17.0501 178.636 17.9947 177.07 18.641C175.512 19.279 173.764 19.598 171.825 19.598H165.262L166.157 14.2287H171.328C172.14 14.2287 172.852 14.1293 173.466 13.9304C174.079 13.7232 174.576 13.4001 174.957 12.9609C175.338 12.5135 175.587 11.9252 175.703 11.196C175.819 10.4669 175.761 9.87441 175.529 9.41868C175.297 8.95466 174.911 8.61494 174.373 8.3995C173.834 8.17578 173.167 8.06392 172.372 8.06392H169.936L166.605 28H159.694ZM176.548 16.3168L180.973 28H173.466L169.19 16.3168H176.548ZM192.202 28.348C190.164 28.348 188.474 27.9586 187.131 27.1797C185.789 26.3925 184.844 25.2656 184.297 23.799C183.751 22.3241 183.651 20.5592 183.999 18.5043C184.331 16.5322 185.014 14.8087 186.05 13.3338C187.094 11.8589 188.407 10.7113 189.99 9.89098C191.581 9.07067 193.362 8.66051 195.334 8.66051C196.776 8.66051 198.04 8.88423 199.125 9.33168C200.219 9.77912 201.11 10.4296 201.797 11.283C202.485 12.1365 202.949 13.1681 203.189 14.3778C203.438 15.5793 203.438 16.9382 203.189 18.4545L202.941 20.0455H185.888L186.485 16.267H197.224C197.306 15.7202 197.253 15.2396 197.062 14.8253C196.88 14.4027 196.586 14.0754 196.18 13.8434C195.782 13.6031 195.301 13.483 194.738 13.483C194.174 13.483 193.644 13.6031 193.147 13.8434C192.658 14.0837 192.24 14.4193 191.892 14.8501C191.552 15.281 191.324 15.7865 191.208 16.3665L190.462 20.3438C190.363 20.9569 190.4 21.5038 190.574 21.9844C190.748 22.465 191.05 22.842 191.481 23.1154C191.912 23.3888 192.467 23.5256 193.147 23.5256C193.611 23.5256 194.05 23.4634 194.464 23.3391C194.887 23.2066 195.26 23.016 195.583 22.7674C195.914 22.5105 196.18 22.1998 196.378 21.8352H202.643C202.195 23.161 201.487 24.3127 200.517 25.2905C199.556 26.2599 198.371 27.014 196.963 27.5526C195.562 28.0829 193.975 28.348 192.202 28.348ZM226.342 8.90909L216.746 28H208.792L205.56 8.90909H212.521L213.515 21.5369H213.714L218.884 8.90909H226.342ZM225.111 28L228.293 8.90909H235.154L231.972 28H225.111ZM232.022 6.92045C231.094 6.92045 230.344 6.61387 229.772 6.00071C229.2 5.37926 228.989 4.64181 229.138 3.78835C229.287 2.91832 229.743 2.18087 230.505 1.57599C231.268 0.962831 232.113 0.65625 233.041 0.65625C233.977 0.65625 234.723 0.962831 235.278 1.57599C235.833 2.18087 236.04 2.91832 235.899 3.78835C235.767 4.64181 235.319 5.37926 234.557 6.00071C233.803 6.61387 232.958 6.92045 232.022 6.92045ZM244.566 28.348C242.527 28.348 240.837 27.9586 239.494 27.1797C238.152 26.3925 237.208 25.2656 236.661 23.799C236.114 22.3241 236.014 20.5592 236.362 18.5043C236.694 16.5322 237.377 14.8087 238.413 13.3338C239.457 11.8589 240.771 10.7113 242.353 9.89098C243.944 9.07067 245.726 8.66051 247.698 8.66051C249.139 8.66051 250.403 8.88423 251.488 9.33168C252.582 9.77912 253.473 10.4296 254.161 11.283C254.848 12.1365 255.312 13.1681 255.553 14.3778C255.801 15.5793 255.801 16.9382 255.553 18.4545L255.304 20.0455H238.252L238.848 16.267H249.587C249.67 15.7202 249.616 15.2396 249.425 14.8253C249.243 14.4027 248.949 14.0754 248.543 13.8434C248.145 13.6031 247.664 13.483 247.101 13.483C246.538 13.483 246.007 13.6031 245.51 13.8434C245.021 14.0837 244.603 14.4193 244.255 14.8501C243.915 15.281 243.687 15.7865 243.571 16.3665L242.825 20.3438C242.726 20.9569 242.763 21.5038 242.937 21.9844C243.111 22.465 243.414 22.842 243.845 23.1154C244.276 23.3888 244.831 23.5256 245.51 23.5256C245.974 23.5256 246.413 23.4634 246.828 23.3391C247.25 23.2066 247.623 23.016 247.946 22.7674C248.278 22.5105 248.543 22.1998 248.742 21.8352H255.006C254.558 23.161 253.85 24.3127 252.881 25.2905C251.919 26.2599 250.734 27.014 249.326 27.5526C247.925 28.0829 246.339 28.348 244.566 28.348ZM259.903 28L258.312 8.90909H265.173L265.421 20.5426H265.57L269.945 8.90909H276.607L277.204 20.4432H277.353L281.38 8.90909H288.241L280.286 28H272.879L271.884 17.7585H271.686L267.311 28H259.903ZM306.686 15.1236H300.521C300.554 14.7259 300.483 14.3861 300.309 14.1044C300.135 13.8227 299.891 13.6072 299.576 13.4581C299.27 13.3089 298.922 13.2344 298.532 13.2344C297.853 13.2344 297.235 13.3877 296.68 13.6942C296.125 13.9925 295.814 14.3861 295.748 14.875C295.707 15.0656 295.769 15.2437 295.934 15.4094C296.1 15.5752 296.535 15.7285 297.24 15.8693L301.018 16.5653C302.907 16.9134 304.283 17.5472 305.144 18.467C306.014 19.3784 306.329 20.584 306.089 22.0838C305.865 23.3847 305.294 24.5033 304.374 25.4396C303.454 26.3759 302.286 27.0968 300.869 27.6023C299.46 28.0994 297.902 28.348 296.195 28.348C293.188 28.348 290.934 27.7473 289.434 26.5458C287.943 25.3443 287.263 23.7741 287.396 21.8352H294.058C294.074 22.4567 294.281 22.9248 294.679 23.2397C295.085 23.5463 295.624 23.7079 296.295 23.7244C297.024 23.7493 297.662 23.6043 298.209 23.2894C298.756 22.9663 299.062 22.5644 299.129 22.0838C299.154 21.8104 299.033 21.6032 298.768 21.4624C298.511 21.3215 298.018 21.1806 297.289 21.0398L294.008 20.4432C292.119 20.1035 290.743 19.424 289.882 18.4048C289.02 17.3774 288.722 16.0682 288.987 14.4773C289.202 13.2095 289.716 12.1448 290.528 11.283C291.348 10.4213 292.425 9.77083 293.759 9.33168C295.093 8.88423 296.635 8.66051 298.383 8.66051C301.242 8.66051 303.404 9.23639 304.871 10.3881C306.346 11.5316 306.951 13.1101 306.686 15.1236Z" fill="white"/>
</svg>
