<svg  width="25" height="25" viewBox="0 0 25 25" preserveAspectRatio="none" fill="none" xmlns="http://www.w3.org/2000/svg">
<path d="M24.4763 22.5238L19.8013 17.8625C21.3096 15.9409 22.128 13.5679 22.125 11.125C22.125 8.94941 21.4799 6.82267 20.2712 5.01373C19.0625 3.20479 17.3445 1.79489 15.3345 0.96233C13.3245 0.129766 11.1128 -0.0880706 8.97901 0.336367C6.84522 0.760804 4.88521 1.80845 3.34683 3.34683C1.80845 4.88521 0.760804 6.84522 0.336367 8.97901C-0.0880706 11.1128 0.129766 13.3245 0.96233 15.3345C1.79489 17.3445 3.20479 19.0625 5.01373 20.2712C6.82267 21.4799 8.94941 22.125 11.125 22.125C13.5679 22.128 15.9409 21.3096 17.8625 19.8013L22.5238 24.4763C22.6516 24.6051 22.8037 24.7074 22.9712 24.7772C23.1388 24.847 23.3185 24.883 23.5 24.883C23.6815 24.883 23.8612 24.847 24.0288 24.7772C24.1964 24.7074 24.3484 24.6051 24.4763 24.4763C24.6051 24.3484 24.7074 24.1964 24.7772 24.0288C24.847 23.8612 24.883 23.6815 24.883 23.5C24.883 23.3185 24.847 23.1388 24.7772 22.9712C24.7074 22.8037 24.6051 22.6516 24.4763 22.5238ZM2.87501 11.125C2.87501 9.49331 3.35886 7.89826 4.26538 6.54155C5.1719 5.18485 6.46038 4.12742 7.96787 3.503C9.47536 2.87858 11.1342 2.7152 12.7345 3.03353C14.3348 3.35185 15.8049 4.13759 16.9586 5.29137C18.1124 6.44516 18.8982 7.91517 19.2165 9.51551C19.5348 11.1159 19.3714 12.7747 18.747 14.2821C18.1226 15.7896 17.0652 17.0781 15.7085 17.9846C14.3518 18.8912 12.7567 19.375 11.125 19.375C8.93697 19.375 6.83855 18.5058 5.29137 16.9586C3.7442 15.4115 2.87501 13.313 2.87501 11.125Z" fill="#231F20"/>
</svg>

